<svg viewBox="0 0 3411 2614" xmlns="http://www.w3.org/2000/svg" fill-rule="evenodd" clip-rule="evenodd" stroke-linejoin="round" stroke-miterlimit="2"><path fill="none" d="M0 0h3410.995v2614.006H0z"/><path d="M1698.356 100.337c-511.98 0-1023.96-.01-1535.942.014-56.222.002-60.394 4.288-60.394 61.323-.008 758.255-.008 1516.507.002 2274.758 0 56.18 4.404 60.56 61.16 60.58 1023.96 0 2047.92 0 3071.877-.02 56.22 0 60.392-4.28 60.392-61.32.008-757.17.008-1514.343.002-2271.514 0-60.555-3.266-63.815-64.404-63.815-510.899-.014-1021.794-.008-1532.693-.006m.556 2496.896c-514.152 0-1028.305.06-1542.456-.06-81-.02-137.178-41.38-153.098-112.58-2.796-12.5-3.224-25.72-3.226-38.62C-.014 1681.224-.046 916.47.06 151.715.072 56.929 59.784.173 159.354.165c941.71-.08 1883.419-.048 2825.128-.048 86.595 0 173.19-.316 259.783.09 95.014.442 153.164 59.146 153.174 154.405.062 762.593.062 1525.183.002 2287.78-.008 96.76-58.196 154.721-156.076 154.761-514.15.16-1028.302.08-1542.453.08" fill="#ededed" fill-rule="nonzero"/></svg>