<?xml version="1.0" encoding="UTF-8" standalone="no"?>
<!DOCTYPE svg PUBLIC "-//W3C//DTD SVG 1.1//EN" "http://www.w3.org/Graphics/SVG/1.1/DTD/svg11.dtd">
<svg width="100%" height="100%" viewBox="0 0 1300 2596" version="1.1" xmlns="http://www.w3.org/2000/svg" xmlns:xlink="http://www.w3.org/1999/xlink" xml:space="preserve" xmlns:serif="http://www.serif.com/" style="fill-rule:evenodd;clip-rule:evenodd;stroke-linejoin:round;stroke-miterlimit:2;">
    <g transform="matrix(1.02121,0,0,1.03016,1859.62,0)">
        <rect x="-1821" y="0" width="1273" height="2520" style="fill:none;"/>
        <g>
            <path d="M-1027.86,104.934C-1027.81,96.974 -1034.38,90.383 -1042.42,90.334C-1050.45,90.285 -1057.1,96.799 -1057.15,104.769C-1057.19,112.719 -1050.62,119.319 -1042.59,119.369C-1034.56,119.417 -1027.91,112.894 -1027.86,104.934M-1196.25,114.524C-1171.79,114.524 -1147.31,114.534 -1122.84,114.524C-1114.17,114.524 -1109.14,110.972 -1109.13,104.866C-1109.12,98.75 -1114.16,95.168 -1122.81,95.168L-1269.63,95.168C-1271.26,95.168 -1272.92,95.071 -1274.52,95.304C-1279.47,96.003 -1283.34,100.254 -1283.35,104.837C-1283.36,109.409 -1279.48,113.69 -1274.55,114.389C-1272.95,114.622 -1271.3,114.524 -1269.66,114.524C-1245.19,114.534 -1220.72,114.524 -1196.25,114.524M-638.105,1254.14L-638.105,181.962C-638.105,168.954 -640.292,156.315 -644.622,144.045C-660.062,100.295 -698.387,75.813 -745.002,74.143C-784.933,72.707 -824.958,73.793 -864.943,73.853C-872.228,73.862 -876.59,78.502 -877.07,85.646C-877.49,91.917 -877.84,98.246 -879.02,104.401C-882.283,121.398 -889.79,136.095 -904.042,146.783C-917.097,156.577 -932.048,159.48 -948.102,159.46C-1063.97,159.344 -1179.85,159.421 -1295.72,159.402C-1343.21,159.402 -1390.7,159.557 -1438.19,159.14C-1454,159.004 -1468.07,153.083 -1479.45,141.948C-1494.61,127.125 -1499.88,108.313 -1500.69,87.908C-1501.1,77.658 -1504.96,73.813 -1515.48,73.813C-1551.05,73.813 -1586.63,73.6 -1622.21,73.939C-1632.56,74.037 -1643.06,74.871 -1653.22,76.813C-1705.67,86.87 -1739.48,127.776 -1739.5,179.7C-1739.78,895.784 -1739.69,1611.87 -1739.64,2327.95C-1739.64,2332.96 -1739.22,2337.96 -1738.41,2342.91C-1733.82,2370.75 -1721.45,2394.57 -1700.01,2413.33C-1681.87,2429.19 -1660.96,2438.57 -1636.31,2438.57C-1337.98,2438.55 -1039.65,2438.55 -741.314,2438.59C-729.76,2438.59 -718.728,2436.39 -708.082,2432.1C-667.022,2415.55 -638.115,2372.3 -638.113,2327.3C-638.102,1969.58 -638.106,1611.86 -638.105,1254.15M-1821,431.03L-1821,336.86C-1818.74,336.103 -1816.49,335.336 -1814.28,334.589C-1814.24,333.618 -1814.18,332.977 -1814.18,332.337C-1814.17,297.585 -1814.13,262.823 -1814.17,228.071C-1814.21,199.017 -1811.37,170.294 -1803.4,142.259C-1782.09,67.377 -1733.97,20.491 -1656.4,4.639C-1647.35,2.795 -1638.18,1.533 -1629.07,0.009L-747.752,0.009C-738.15,1.621 -728.479,2.912 -718.954,4.902C-656.309,17.968 -610.582,52.332 -584.548,110.934C-568.988,145.967 -562.856,183.039 -562.773,221.043C-562.513,338.986 -562.66,456.929 -562.648,574.872L-562.648,580.871C-559.039,581.861 -556.074,582.677 -553.041,583.511L-553.041,864.341C-556.383,865.536 -560.779,865.798 -562.189,867.972C-563.759,870.38 -562.642,874.534 -562.642,877.932C-562.647,1342.91 -562.648,1807.88 -562.651,2272.86C-562.651,2280.14 -562.549,2287.42 -562.734,2294.7C-563.472,2323.77 -567.299,2352.38 -576.395,2380.12C-593.531,2432.39 -625.45,2472 -677.013,2494.43C-709.853,2508.72 -744.578,2513.36 -780.141,2513.36C-1052.36,2513.35 -1324.57,2513.45 -1596.79,2513.15C-1615.61,2513.12 -1634.71,2511.6 -1653.2,2508.22C-1722.83,2495.48 -1771.45,2456.75 -1796.72,2390.52C-1810,2355.7 -1814.19,2319.42 -1814.19,2282.45C-1814.16,1832.68 -1814.17,1382.91 -1814.17,933.137L-1814.17,926.653C-1816.87,926.06 -1818.93,925.604 -1821,925.148L-1821,746.524C-1818.75,745.767 -1816.51,745.01 -1814.51,744.33L-1814.51,697.483C-1816.89,696.959 -1818.95,696.503 -1821,696.046L-1821,517.423C-1818.75,516.666 -1816.5,515.899 -1814.5,515.23L-1814.5,432.456C-1816.88,431.932 -1818.94,431.476 -1821,431.029" style="fill:#353535;fill-rule:nonzero;"/>
        </g>
    </g>
</svg>
