<svg viewBox="0 0 1300 2596" xmlns="http://www.w3.org/2000/svg" fill-rule="evenodd" clip-rule="evenodd" stroke-linejoin="round" stroke-miterlimit="2"><g transform="matrix(1.02121 0 0 1.03016 1859.62 0)"><path fill="none" d="M-1821 0h1273v2520h-1273z"/><clipPath id="a"><path d="M-1821 0h1273v2520h-1273z"/></clipPath><g clip-path="url(#a)"><path d="M-1027.86 104.934c.047-7.96-6.525-14.551-14.556-14.6-8.034-.049-14.682 6.465-14.73 14.435-.048 7.95 6.53 14.55 14.557 14.6 8.028.048 14.682-6.475 14.729-14.435m-168.394 9.59c24.469 0 48.94.01 73.41 0 8.67 0 13.703-3.552 13.712-9.658.009-6.116-5.033-9.698-13.682-9.698h-146.82c-1.63 0-3.283-.097-4.885.136-4.95.699-8.821 4.95-8.83 9.533-.008 4.572 3.865 8.853 8.8 9.552 1.601.233 3.254.135 4.885.135 24.47.01 48.94 0 73.41 0m558.149 1139.62V181.962c0-13.008-2.187-25.647-6.517-37.917-15.44-43.75-53.765-68.232-100.38-69.902-39.931-1.436-79.956-.35-119.941-.29-7.285.009-11.647 4.649-12.127 11.793-.42 6.271-.77 12.6-1.95 18.755-3.263 16.997-10.77 31.694-25.022 42.382-13.055 9.794-28.006 12.697-44.06 12.677-115.872-.116-231.745-.039-347.619-.058-47.492 0-94.984.155-142.472-.262-15.808-.136-29.878-6.057-41.26-17.192-15.16-14.823-20.422-33.635-21.238-54.04-.412-10.25-4.27-14.095-14.785-14.095-35.578 0-71.158-.213-106.733.126-10.353.098-20.855.932-31.007 2.874-52.451 10.057-86.259 50.963-86.28 102.887-.288 716.084-.197 1432.17-.144 2148.254a92.5 92.5 0 001.23 14.952c4.59 27.844 16.955 51.66 38.404 70.42 18.14 15.864 39.042 25.24 63.694 25.239 298.332-.016 596.665-.02 894.998.023 11.554.002 22.586-2.195 33.232-6.484 41.06-16.554 69.967-59.805 69.969-104.803.011-357.72.007-715.438.008-1073.155m-1182.892-823.116v-94.17c2.253-.757 4.507-1.524 6.714-2.271.048-.971.106-1.612.106-2.252.007-34.752.043-69.514.002-104.266-.034-29.054 2.802-57.777 10.779-85.812 21.308-74.882 69.425-121.768 146.994-137.62 9.05-1.844 18.22-3.106 27.335-4.63h881.315c9.602 1.612 19.273 2.903 28.798 4.893 62.645 13.066 108.372 47.43 134.406 106.032 15.56 35.033 21.692 72.105 21.775 110.109.26 117.943.113 235.886.125 353.829v5.999c3.609.99 6.574 1.806 9.607 2.64v280.83c-3.342 1.195-7.738 1.457-9.148 3.631-1.57 2.408-.453 6.562-.453 9.96-.005 464.977-.006 929.95-.009 1394.926 0 7.28.102 14.564-.083 21.84-.738 29.07-4.565 57.68-13.661 85.425-17.136 52.265-49.055 91.874-100.618 114.309-32.84 14.287-67.565 18.931-103.128 18.93-272.215-.012-544.43.09-816.645-.216-18.823-.022-37.921-1.543-56.415-4.926-69.631-12.742-118.252-51.47-143.516-117.701-13.28-34.815-17.477-71.098-17.474-108.073.033-449.768.02-899.534.018-1349.309v-6.484c-2.694-.593-4.759-1.049-6.824-1.505V746.524c2.245-.757 4.49-1.514 6.491-2.194v-46.847c-2.388-.524-4.44-.98-6.491-1.437V517.423c2.25-.757 4.499-1.524 6.5-2.193v-82.774c-2.385-.524-4.443-.98-6.5-1.427" fill-rule="nonzero"/></g></g></svg>