<?xml version="1.0" encoding="UTF-8" standalone="no"?>
<!DOCTYPE svg PUBLIC "-//W3C//DTD SVG 1.1//EN" "http://www.w3.org/Graphics/SVG/1.1/DTD/svg11.dtd">
<svg width="100%" height="100%" viewBox="0 0 1024 1024" version="1.1" xmlns="http://www.w3.org/2000/svg" xmlns:xlink="http://www.w3.org/1999/xlink" xml:space="preserve" xmlns:serif="http://www.serif.com/" style="fill-rule:evenodd;clip-rule:evenodd;stroke-linejoin:round;stroke-miterlimit:2;">
    <rect id="Artboard1" x="0" y="0" width="1024" height="1024" style="fill:none;"/>
    <g id="Artboard11" serif:id="Artboard1">
        <g transform="matrix(1,0,0,1,-47.9355,167.289)">
            <g transform="matrix(600,0,0,600,202.635,570.911)">
                <path d="M0.401,-0.765L0.259,-0.765L0.025,-0L0.144,-0L0.21,-0.225L0.444,-0.225L0.513,-0L0.635,-0L0.401,-0.765ZM0.228,-0.314L0.289,-0.515C0.302,-0.562 0.314,-0.618 0.325,-0.665L0.327,-0.665C0.338,-0.618 0.351,-0.564 0.365,-0.514L0.425,-0.314L0.228,-0.314Z" style="fill:white;fill-rule:nonzero;"/>
            </g>
            <g transform="matrix(600,0,0,600,599.235,570.911)">
                <path d="M0.458,-0.104C0.422,-0.089 0.38,-0.078 0.319,-0.078C0.232,-0.078 0.155,-0.125 0.152,-0.249L0.502,-0.249C0.504,-0.263 0.505,-0.279 0.505,-0.298C0.505,-0.434 0.443,-0.563 0.288,-0.563C0.132,-0.563 0.04,-0.432 0.04,-0.268C0.04,-0.1 0.136,0.011 0.302,0.011C0.377,0.011 0.438,-0.004 0.477,-0.022L0.458,-0.104ZM0.153,-0.332C0.159,-0.396 0.195,-0.48 0.28,-0.48C0.369,-0.48 0.396,-0.398 0.395,-0.332L0.153,-0.332Z" style="fill:white;fill-rule:nonzero;"/>
            </g>
        </g>
    </g>
</svg>
