<?xml version="1.0" encoding="UTF-8" standalone="no"?>
<!DOCTYPE svg PUBLIC "-//W3C//DTD SVG 1.1//EN" "http://www.w3.org/Graphics/SVG/1.1/DTD/svg11.dtd">
<svg width="100%" height="100%" viewBox="0 0 1024 1024" version="1.1" xmlns="http://www.w3.org/2000/svg" xmlns:xlink="http://www.w3.org/1999/xlink" xml:space="preserve" xmlns:serif="http://www.serif.com/" style="fill-rule:evenodd;clip-rule:evenodd;stroke-linejoin:round;stroke-miterlimit:2;">
    <rect id="Artboard1" x="0" y="0" width="1024" height="1024" style="fill:none;"/>
    <g id="Artboard11" serif:id="Artboard1">
        <g transform="matrix(1,0,0,1,-70.0355,155.009)">
            <g transform="matrix(560,0,0,560,202.635,570.911)">
                <path d="M0.401,-0.765L0.259,-0.765L0.025,-0L0.144,-0L0.21,-0.225L0.444,-0.225L0.513,-0L0.635,-0L0.401,-0.765ZM0.228,-0.314L0.289,-0.515C0.302,-0.562 0.314,-0.618 0.325,-0.665L0.327,-0.665C0.338,-0.618 0.351,-0.564 0.365,-0.514L0.425,-0.314L0.228,-0.314Z" style="fill:white;fill-rule:nonzero;"/>
            </g>
            <g transform="matrix(560,0,0,560,572.795,570.911)">
                <path d="M0.08,-0.002C0.123,0.004 0.178,0.007 0.246,0.007C0.381,0.007 0.49,-0.027 0.559,-0.094C0.626,-0.159 0.669,-0.26 0.669,-0.399L0.669,-0.4C0.669,-0.57 0.601,-0.771 0.275,-0.771C0.203,-0.771 0.135,-0.764 0.08,-0.755L0.08,-0.002ZM0.196,-0.671C0.216,-0.675 0.246,-0.679 0.286,-0.679C0.451,-0.679 0.547,-0.583 0.547,-0.397C0.547,-0.186 0.443,-0.085 0.271,-0.086C0.244,-0.086 0.216,-0.087 0.196,-0.09L0.196,-0.671Z" style="fill:white;fill-rule:nonzero;"/>
            </g>
        </g>
    </g>
</svg>
