<?xml version="1.0" encoding="UTF-8" standalone="no"?>
<!DOCTYPE svg PUBLIC "-//W3C//DTD SVG 1.1//EN" "http://www.w3.org/Graphics/SVG/1.1/DTD/svg11.dtd">
<svg width="100%" height="100%" viewBox="0 0 1024 1024" version="1.1" xmlns="http://www.w3.org/2000/svg" xmlns:xlink="http://www.w3.org/1999/xlink" xml:space="preserve" xmlns:serif="http://www.serif.com/" style="fill-rule:evenodd;clip-rule:evenodd;stroke-linejoin:round;stroke-miterlimit:2;">
    <rect id="Artboard1" x="0" y="0" width="1024" height="1024" style="fill:none;"/>
    <g id="Artboard11" serif:id="Artboard1">
        <g transform="matrix(1,0,0,1,-8.33547,169.089)">
            <g transform="matrix(600,0,0,600,202.635,570.911)">
                <path d="M0.08,-0L0.195,-0L0.195,-0.3C0.214,-0.296 0.236,-0.295 0.26,-0.295C0.398,-0.295 0.546,-0.359 0.546,-0.545C0.546,-0.615 0.52,-0.673 0.477,-0.71C0.431,-0.751 0.36,-0.771 0.266,-0.771C0.187,-0.771 0.126,-0.764 0.08,-0.756L0.08,-0ZM0.195,-0.673C0.21,-0.676 0.237,-0.68 0.273,-0.68C0.366,-0.68 0.43,-0.633 0.43,-0.54C0.43,-0.442 0.366,-0.387 0.26,-0.387C0.233,-0.387 0.212,-0.388 0.195,-0.393L0.195,-0.673Z" style="fill:white;fill-rule:nonzero;"/>
            </g>
            <g transform="matrix(600,0,0,600,553.635,570.911)">
                <path d="M0.374,-0.531C0.344,-0.548 0.297,-0.563 0.243,-0.563C0.127,-0.563 0.052,-0.49 0.052,-0.398C0.052,-0.334 0.095,-0.279 0.193,-0.24C0.259,-0.212 0.282,-0.189 0.282,-0.147C0.282,-0.105 0.252,-0.075 0.19,-0.075C0.143,-0.075 0.092,-0.095 0.064,-0.112L0.038,-0.026C0.075,-0.004 0.13,0.011 0.188,0.011C0.313,0.011 0.394,-0.052 0.394,-0.158C0.394,-0.238 0.346,-0.288 0.255,-0.325C0.188,-0.354 0.163,-0.373 0.163,-0.411C0.163,-0.448 0.191,-0.478 0.243,-0.478C0.288,-0.478 0.326,-0.461 0.348,-0.447L0.374,-0.531Z" style="fill:white;fill-rule:nonzero;"/>
            </g>
        </g>
    </g>
</svg>
