<?xml version="1.0" encoding="UTF-8" standalone="no"?><!DOCTYPE svg PUBLIC "-//W3C//DTD SVG 1.1//EN" "http://www.w3.org/Graphics/SVG/1.1/DTD/svg11.dtd"><svg width="100%" height="100%" viewBox="0 0 941 941" version="1.1" xmlns="http://www.w3.org/2000/svg" xmlns:xlink="http://www.w3.org/1999/xlink" xml:space="preserve" xmlns:serif="http://www.serif.com/" style="fill-rule:evenodd;clip-rule:evenodd;stroke-linejoin:round;stroke-miterlimit:2;"><path d="M600.833,689.243c-38.983,-14.233 -35.575,-30.8 -151,-18.761c-58.352,6.086 -58.192,-3.008 -109.015,18.761c-10.546,4.517 -15.227,5.682 -27.035,11.259c-25.344,11.97 -14.251,8.307 -41.494,22.383c-52.765,27.262 -141.124,71.544 -158.122,77.75c-60.745,22.179 -85.167,140.365 -85.167,140.365l908,-0c0,-0 -1.433,1.347 -26.658,-32.934c-12.279,-16.686 -40.422,-71.179 -56.599,-81.286c-39.118,-24.438 -99.693,-48.948 -144.766,-72.496c-55.143,-28.81 -90.252,-58.508 -108.144,-65.041Z" style="fill:#1c1e2a;"/><path d="M425.302,178.478c3.076,0 3.805,-7.16 2.735,-11.136c-1.495,-5.558 -18.397,-8.705 -16.291,-10.224c2.106,-1.519 13.852,-1.887 28.926,1.112c7.436,1.48 20.69,16.005 20.69,16.005c0,-0 7.973,-4.368 18.497,-3.362c4.222,0.404 13.406,9.53 13.406,9.53c0,-0 3.54,-3.664 11.417,-1.677c8.708,2.196 7.629,16.667 13.317,18.844c15.949,6.103 18.639,14.216 18.639,14.216c-0,0 20.552,3.826 26.631,7.227c5.302,2.968 9.84,13.184 9.84,13.184c-0,0 23.204,1 34.173,17.155c3.22,4.742 0.635,34.492 0.635,34.492c0,-0 10.429,8.047 10.594,21.766c0.12,9.956 -5.79,17.041 -5.79,17.041c-0,0 9.32,11.602 9.549,17.028c0.447,10.633 -8.486,15.522 -8.486,15.522c0,0 9.063,9.801 8.777,14.303c-0.521,8.217 -10.681,15.603 -11.425,23.498c-0.894,9.482 3.174,23.757 1.148,32.601c-0,0 6.997,3.605 6.744,8.322c-0.164,3.067 -7,6.604 -8.489,9.927c-12.085,26.988 -32.407,45.458 -63.443,45.458c-36.075,0 -202.656,15.49 -274.919,-5.547c-10.374,-3.02 -12.647,-17.195 -13.024,-31.318c-0.269,-10.033 -6.58,-22.831 -7.16,-29.788c-0.708,-8.486 16.622,-30.872 11.416,-26.78c-6.298,4.952 -15.962,9.003 -15.846,1.252c0.152,-10.126 8.055,-20.045 6.795,-22.918c-6.355,-14.492 -10.153,-10.755 -9.707,-22.96c0.762,-20.838 11.925,-15.617 8.918,-33.292c-4.611,-27.101 -4.826,-36.493 -4.826,-45.94c-0,-21.169 4.101,-67.637 31.411,-62.41c6.163,1.179 10.182,-10.315 19.923,-13.043c8.544,-2.393 17.239,2.419 17.239,2.419c-0,-0 6.848,-7.213 15.269,-9.508c8.155,-2.222 16.875,0.486 16.875,0.486c0,-0 7.464,-14.575 16.201,-15.129c7.732,-0.491 17.984,7.615 22.934,9.82c8.541,3.804 -0.64,0.593 -9.64,-14.243c-7.601,-12.53 -12.209,-27.47 -2.696,-33.458c15.24,-9.595 21.956,-2.703 21.956,-2.703c0,0 -21.037,-3.692 -21.956,7.898c-0.471,5.937 1.312,16.011 7.173,23.222c8.534,10.501 13.522,19.521 14.783,19.406c11.291,-1.03 -1.57,-11.295 2.484,-12.238c4.514,-1.049 13.218,5.94 24.603,5.94Z" style="fill:#7f5a0b;"/><path d="M431.451,874.273c-52.921,-0.516 -78.091,-56.392 -104.556,-115.252c-15.286,-33.997 -20.178,-235.865 -19.754,-279.332c0.272,-27.866 259.394,-34.973 259.054,-0.182c-0.517,53.082 6.145,100.786 0,218.768c-2.812,54.008 -88.585,176.448 -134.744,175.998Z" style="fill:#e6ae94;"/><path d="M609.279,441.537c11.906,2.143 12.389,3.204 13.289,9.57c1.061,7.512 5.74,12.659 3.633,27.049c-2.09,14.278 -9.508,36.593 -11.134,45.628c-2.094,11.63 -5.775,18.015 -14.623,31.863c-7.882,12.338 -17.479,21.314 -28.661,16.791c-21.532,-8.708 -15.571,-46.714 -12.957,-61.234c3.988,-22.154 -5.25,-28.588 4.266,-43.048c11.766,-17.88 32.418,-29.098 46.187,-26.619Z" style="fill:#efb498;"/><path d="M581.525,479.904c9.725,-12.511 21.259,-23.504 33.22,-23.573c5.542,-0.032 5.346,9.252 3.919,19.528c-1.416,10.197 -5.57,27.015 -6.73,33.459c-1.493,8.294 -6.18,11.776 -13.482,21.474c-6.505,8.64 -14.595,14.816 -24.442,11.254c-18.961,-6.86 -14.848,-33.989 -12.984,-44.344c2.845,-15.799 12.634,-7.68 20.499,-17.798Z" style="fill-opacity:0.05;"/><path d="M414.788,281.738c52.924,0 110.109,1.319 137.147,59.919c15.616,33.846 14.129,131.733 14.129,175.202c-0,27.867 1.625,43.5 -6.556,66.437c-12.497,35.034 -40.826,61.898 -61.461,97.736c-18.385,31.929 -49.303,50.226 -83.259,50.947c-76.606,1.627 -92.791,-59.398 -104.603,-80.191c-13.151,-23.151 -16.833,-29.934 -32.147,-58.504c-14.585,-27.21 -14.525,-41.633 -14.525,-76.425c-0,-53.085 -2.716,-158.303 19.73,-195.838c27.757,-46.416 85.384,-39.283 131.545,-39.283Z" style="fill:#f5ba9e;"/><path d="M438.537,873.915c-26.229,5.843 -61.962,-12.835 -97.992,-44.223c-16.71,-14.556 -27.429,-170.549 -27.429,-170.549l-29.013,-48.922c0,-0 -2.961,-3.748 4.071,-6.723c2.194,-0.928 29,27.116 34.466,41.111c2.531,6.483 9.644,31.744 26.521,40.82c20.733,11.15 40.66,13.834 56.141,13.686c10.966,-0.105 31.853,0.52 43.287,-7.704c10.088,-7.257 17.212,-20.62 27.115,-32.114c10.415,-12.089 22.585,-43.106 32.209,-55.799c8.936,-11.784 15.401,-16.185 23.157,-23.152c36.972,-33.216 34.994,-106.956 34.994,-63.487c-0,27.867 2.138,43.425 2.751,67.77c0.515,20.45 -3.123,125.171 -3.123,125.171c0,0 -18.886,48.168 -36.183,75.445c-32.594,51.401 -77.679,85.708 -90.972,88.67Z" style="fill-opacity:0.06;"/><g><path d="M469.204,591.612c-0.388,16.128 -34.703,37.024 -71.163,34.047c-16.534,-1.349 -32.82,-6.061 -44.571,-14.252c-11.497,-8.015 -16.236,-20.746 -21.151,-31.061c0.044,0.022 33.151,7.441 49.644,8.824c53.636,4.5 63.918,8.022 87.241,2.442Z" style="fill:#8e181b;fill-rule:nonzero;"/><path d="M352.966,601.871c32.736,6.997 65.862,15.457 97.146,3.831c1.125,-4.983 1.586,-5.881 1.394,-11.068c-36.355,-1.727 -89.518,-7.536 -109.389,-12.152c1.987,6.76 6.814,14.012 10.849,19.389Z" style="fill:#fff;fill-rule:nonzero;"/><path d="M435.195,618.057c-7.599,-3.515 -17.467,-3.22 -26.521,-4.123c-8.964,-0.894 -19.101,-0.442 -27.461,2.199c-5.174,1.637 -8.518,0.896 -11.413,3.564c8.741,3.204 18.426,5.222 28.241,5.962c14.218,1.089 28.916,-0.238 40.189,-5.975c-0.976,-0.576 -1.97,-1.129 -3.035,-1.627Z" style="fill:#f08294;fill-rule:nonzero;"/></g><path d="M359.009,544.234c-2.063,-16.188 19.744,-15.579 21.764,-17.535c3.118,-3.019 -3.002,-3.328 -5.082,-3.504c0.078,-9.215 9.555,-28.97 4.327,-35.715c-0.921,-1.177 -6.345,-4.926 -5.501,-3.325c2.777,5.523 -5.992,32.133 -8.077,37.532c-0.317,0.852 -0.427,1.72 -0.504,2.525c-4.648,1.597 -8.49,4.937 -10.481,10.628c-5.985,17.358 9.665,35.663 22.086,35.866l0.487,-0.479c-12.209,-7.042 -17.938,-17.507 -19.019,-25.993Z" style="fill:#dca388;fill-rule:nonzero;"/><path d="M273.667,229.502c9.887,-1.744 20.568,-22.413 37.475,-20.013c9.467,1.344 14.709,-6.831 27.646,-10.677c3.492,-1.039 13.726,4.729 17.34,3.299c6.416,-2.539 2.886,-12.229 19.849,-13.225c11.683,-0.685 31.358,15.085 31.358,15.085c-0,0 16.504,-11.864 46.646,-7.766c4.92,0.669 13.705,9.628 18.519,11.208c9.589,3.146 21.567,-6.255 36.151,-2.626c21.095,5.25 24.603,20.191 24.603,20.191c-0,0 5.048,-3.204 17.26,-1.63c22.561,2.906 20.681,22.785 20.681,22.785c0,-0 21.184,-1.472 28.436,8.733c12.885,18.133 -1.133,31.478 -1.133,31.478c-0,-0 10.551,-0.681 14.004,24.475c2.436,17.748 -7.948,20.565 -7.948,20.565c0,0 15.971,6.113 16.555,13.492c0.531,6.712 -14.316,14.644 -14.395,16.645c-0.368,9.363 8.569,11.716 7.485,20.965c-0.926,7.901 -12.305,26.634 -12.6,32.177c-0.852,15.977 4.609,23.959 2.707,31.596c-5.311,21.324 -19.523,30.025 -32.777,25.903c-8.385,-2.608 -21.962,-35.352 -27.076,-42.751c-7.274,-10.522 -0.02,-38.304 -3.964,-50.072c-4.165,-12.424 1.015,-37.94 0.538,-35.962c-2.721,11.284 -26.15,13.967 -33.184,18.185c-13.525,8.112 -39.052,-17.624 -39.052,-17.624c-0,-0 -9.905,17.594 -17.487,20.38c-16.007,5.883 -21.804,-19.235 -21.804,-19.235c-0,0 -15.5,-0.132 -19.698,-3.983c-4.197,-3.851 -5.486,-19.123 -5.486,-19.123c-0,-0 2.605,21.162 -5.692,20.921c-9.197,-0.268 5.355,-20.069 -1.623,-21.569c-10.178,-2.186 6.649,-18.88 6.649,-18.88c-0,-0 -4.982,-6.131 -11.755,-6.869c-5.837,-0.636 -13.604,4.105 -13.604,4.105c0,-0 -11.375,9.006 -16.04,10.47c-3.873,1.215 -11.951,-1.689 -11.951,-1.689c-0,0 -7.819,17.436 -15.376,20.428c-12.759,5.052 -22.608,-10.565 -22.608,-10.565c-0,0 -19.191,18.396 -23.975,23.253c-21.626,21.952 -2.856,74.294 -37.341,16.42c-4.392,-7.371 8.342,-13.868 16.177,-46.13c4.718,-19.427 -24.806,-76.849 6.49,-82.37Z" style="fill-opacity:0.06;"/><path d="M271.667,224.502c9.887,-1.744 20.568,-22.413 37.475,-20.013c9.467,1.344 14.709,-6.831 27.646,-10.677c3.492,-1.039 13.726,4.729 17.34,3.299c6.416,-2.539 2.886,-12.229 19.849,-13.225c11.683,-0.685 31.358,15.085 31.358,15.085c-0,0 16.504,-11.864 46.646,-7.766c4.92,0.669 13.705,9.628 18.519,11.208c9.589,3.146 21.567,-6.255 36.151,-2.626c21.095,5.25 24.603,20.191 24.603,20.191c-0,0 5.048,-3.204 17.26,-1.63c22.561,2.906 20.681,22.785 20.681,22.785c0,-0 21.184,-1.472 28.436,8.733c12.885,18.133 -1.133,31.478 -1.133,31.478c-0,-0 10.551,-0.681 14.004,24.475c2.436,17.748 -7.948,20.565 -7.948,20.565c0,0 15.971,6.113 16.555,13.492c0.531,6.712 -14.316,14.644 -14.395,16.645c-0.368,9.363 8.569,11.716 7.485,20.965c-0.926,7.901 -12.305,26.634 -12.6,32.177c-0.852,15.977 4.609,23.959 2.707,31.596c-5.311,21.324 -19.523,30.025 -32.777,25.903c-8.385,-2.608 -21.962,-35.352 -27.076,-42.751c-7.274,-10.522 -0.02,-38.304 -3.964,-50.072c-4.165,-12.424 1.015,-37.94 0.538,-35.962c-2.721,11.284 -26.15,13.967 -33.184,18.185c-13.525,8.112 -39.052,-17.624 -39.052,-17.624c-0,-0 -9.905,17.594 -17.487,20.38c-16.007,5.883 -21.804,-19.235 -21.804,-19.235c-0,0 -15.5,-0.132 -19.698,-3.983c-4.197,-3.851 -5.486,-19.123 -5.486,-19.123c-0,-0 2.605,21.162 -5.692,20.921c-9.197,-0.268 5.355,-20.069 -1.623,-21.569c-10.178,-2.186 6.649,-18.88 6.649,-18.88c-0,-0 -4.982,-6.131 -11.755,-6.869c-5.837,-0.636 -13.604,4.105 -13.604,4.105c0,-0 -11.375,9.006 -16.04,10.47c-3.873,1.215 -11.951,-1.689 -11.951,-1.689c-0,0 -7.819,17.436 -15.376,20.428c-12.759,5.052 -22.608,-10.565 -22.608,-10.565c-0,0 -19.191,18.396 -23.975,23.253c-21.626,21.952 -2.856,74.294 -37.341,16.42c-4.392,-7.371 8.342,-13.868 16.177,-46.13c4.718,-19.427 -24.806,-76.849 6.49,-82.37Z" style="fill:#9e6f0b;"/><path d="M347.222,419.032c-26.16,-3.001 -78.13,-6.756 -74.005,18.638c0.73,4.563 7.014,6.517 10.56,3.42c13.538,-11.763 35.467,-5.322 58.936,-6.242c19.592,-0.765 28.578,-13.07 4.509,-15.816Z" style="fill:#724d00;fill-rule:nonzero;"/><path d="M448.59,419.783c26.93,-0.23 78.346,-3.458 73.153,21.74c-0.921,4.528 -7.282,6.215 -10.694,2.972c-13.03,-12.324 -35.211,-6.812 -58.62,-8.72c-19.543,-1.59 -28.063,-15.786 -3.839,-15.992Z" style="fill:#724d00;fill-rule:nonzero;"/><ellipse cx="323.954" cy="459.987" rx="29.003" ry="13.243" style="fill:#fff;"/><ellipse cx="469.204" cy="463.487" rx="29.003" ry="13.243" style="fill:#fff;"/><circle cx="469.204" cy="463.487" r="13.243" style="fill:#462f00;"/><circle cx="323.954" cy="459.987" r="13.243" style="fill:#462f00;"/><path d="M410.052,869.067c-22.99,-0.553 -86.303,-101.311 -88.958,-138.789c-1.616,-22.802 -7.107,-67.529 -7.107,-67.529c0,-0 -15.882,12.87 -26.992,45.512c-6.216,18.263 -9.657,58.905 -8.39,67.959c1.669,11.932 7.738,-13.732 15.153,-3.07c6.569,9.444 0.413,26.167 10.649,35.056c5.976,5.191 11.563,2.242 18.677,7.134c6.06,4.167 1.255,16.992 8.035,20.96c8.895,5.205 34.926,19.18 44.969,23.899c3.119,1.465 7.972,6.055 7.972,6.055c5.787,5.497 2.735,19.973 57.577,8.726c35.636,-7.309 50.879,-20.125 56.979,-31.426c5.044,-9.345 20.792,-18.115 31.018,-32.704c3.818,-5.447 12.869,-10.821 19.401,-19.549c5.994,-8.008 9.392,-19.354 14.842,-25.163c6.437,-6.86 10.7,-3.044 13.511,-10.611c2.057,-5.54 21.408,-45.352 22.632,-49.972c4.271,-16.109 -16.15,-37.044 -16.15,-37.044c-0,-0 -1.967,-13.666 -2.709,-15.346c-4.315,-9.772 -12.296,-18.481 -12.296,-18.481l-2.67,54.559c0,0 -7.595,36.211 -13.95,44.876c-22.654,30.885 -43.705,81.668 -77.806,108.041c-19.053,14.735 -45.344,27.365 -64.387,26.907Z" style="fill:#15161d;"/><path d="M458.528,803.668c-6.783,5.246 -34.194,18.454 -46.035,26.935c-21.422,15.341 -37.263,38.556 -40.074,43.73c-9.892,18.207 -13.782,66.674 -13.782,66.674l55.979,0c-0,0 9.663,-47.27 19.889,-61.859c3.818,-5.447 33.617,-16.384 63.702,-37.97c21.91,-15.72 59.89,-66.919 65.34,-72.728c6.437,-6.86 26.885,-32.111 29.696,-39.678c2.057,-5.54 9.186,-24.212 10.411,-28.832c4.27,-16.109 -16.366,-22.312 -20.114,-30.108c-2.34,-4.866 -1.637,-14.987 -2.379,-16.667c-4.315,-9.772 -12.296,-18.481 -12.296,-18.481c-0,0 2.934,39.237 -2.67,54.559c-5.603,15.323 -24.595,28.711 -30.95,37.376c-22.654,30.885 -42.617,50.676 -76.717,77.049Z" style="fill:#121319;"/></svg>