<svg width="300" height="300" viewBox="0 0 300 300" fill="none" xmlns="http://www.w3.org/2000/svg">
<g clip-path="url(#clip0_202_2114)">
<path d="M150 150H300C300 169.698 296.12 189.204 288.582 207.403C281.044 225.601 269.995 242.137 256.066 256.066C242.137 269.995 225.601 281.044 207.403 288.582C189.204 296.12 169.698 300 150 300V150Z" fill="#5854FF"/>
<path d="M150 0H0V150C0 189.782 15.8035 227.936 43.934 256.066C72.0644 284.196 110.218 300 150 300V0Z" fill="#FF3666"/>
<path d="M225 150C266.421 150 300 116.421 300 75C300 33.5786 266.421 0 225 0C183.579 0 150 33.5786 150 75C150 116.421 183.579 150 225 150Z" fill="#FFC329"/>
</g>
<defs>
<clipPath id="clip0_202_2114">
<rect width="300" height="300" fill="white"/>
</clipPath>
</defs>
</svg>
